With: Bridgit Mendler, Adam Hicks and Naomi Scott

Engels of Nederlands gesproken,
Olivia, Charlie, Ben, Mo, en Stella lijken op het eerste gezicht niets met elkaar gemeen te hebben, tot ze tijdens het nablijven per ongeluk een gezamenlijke liefde voor muziek ontdekken. Op aandringen van hun muzieklerares, mevrouw Reznick, besluiten ze een band te vormen en mee te doen aan de talentenjacht "Rising Star". Het is niet altijd even eenvoudig, maar dankzij hun volharding en hun vriendschap bereiken ze uiteindelijk toch de top.

English/Dutch spoken,
Five Mesa High School freshmen: Olivia White (Bridgit Mendler), Mohini "Mo" Banjaree (Naomi Scott), Charlie Delgado (Blake Michael), Stella Yamada (Hayley Kiyoko), and Wen Gifford (Adam Hicks) all meet in detention. 

------------------------ Dutch Friends ------------------------
---------------------------------------------------------------
- Bezoek ook eens mijn vrienden op:  http://www.Film-Test.nl --
----- voor mijn Nederlandse Sync. ondertitels ---- en meer ----
------- http://www.Film-Test.nl ---- voor Films en meer -------
---------------------------------------------------------------

General:

Complete name                    : C:\Klambake\Lemonade Mouth\Lemonade Mouth.avi
Format                           : AVI
Format/Info                      : Audio Video Interleave
File size                        : 1.86 GiB
Duration                         : 1h 48mn
Overall bit rate                 : 2 459 Kbps

Video:

Format                           : MPEG-4 Visual
Format profile                   : Simple@L3
Format settings, BVOP            : No
Format settings, QPel            : No
Format settings, GMC             : No warppoints
Format settings, Matrix          : Default (H.263)
Codec ID                         : XVID
Codec ID/Hint                    : XviD
Duration                         : 1h 48mn
Bit rate                         : 1 674 Kbps
Width                            : 652 pixels
Height                           : 352 pixels
Display aspect ratio             : 1.852
Frame rate                       : 25.000 fps
Color space                      : YUV
Chroma subsampling               : 4:2:0
Bit depth                        : 8 bits
Scan type                        : Progressive
Compression mode                 : Lossy
Bits/(Pixel*Frame)               : 0.292
Stream size                      : 1.27 GiB (68%)
Writing library                  : XviD 1.1.2 (UTC 2006-11-01)

Audio 1:

Format                           : AC-3
Format/Info                      : Audio Coding 3
Mode extension                   : CM (complete main)
Codec ID                         : 2000
Duration                         : 1h 48mn
Bit rate mode                    : Constant
Bit rate                         : 384 Kbps
Channel(s)                       : 6 channels
Channel positions                : Front: L C R, Side: L R, LFE
Sampling rate                    : 48.0 KHz
Bit depth                        : 16 bits
Compression mode                 : Lossy
Stream size                      : 298 MiB (16%)
Alignment                        : Aligned on interleaves
Interleave, duration             : 32 ms (0.80 video frame)
Interleave, preload duration     : 352 ms

Audio 2:

Format                           : AC-3
Format/Info                      : Audio Coding 3
Mode extension                   : CM (complete main)
Codec ID                         : 2000
Duration                         : 1h 48mn
Bit rate mode                    : Constant
Bit rate                         : 384 Kbps
Channel(s)                       : 6 channels
Channel positions                : Front: L C R, Side: L R, LFE
Sampling rate                    : 48.0 KHz
Bit depth                        : 16 bits
Compression mode                 : Lossy
Stream size                      : 298 MiB (16%)
Alignment                        : Aligned on interleaves
Interleave, duration             : 32 ms (0.80 video frame)
Interleave, preload duration     : 352 ms
